<?xml version="1.0" encoding="utf-8"?>
<!-- Generator: Adobe Illustrator 24.3.0, SVG Export Plug-In . SVG Version: 6.00 Build 0)  -->
<svg version="1.1" id="Layer_1" xmlns="http://www.w3.org/2000/svg" xmlns:xlink="http://www.w3.org/1999/xlink" x="0px" y="0px"
	 viewBox="0 0 2729.8 301.2" style="enable-background:new 0 0 2729.8 301.2;" xml:space="preserve">
<style type="text/css">
	.st0{fill:#FFFFFF;}
</style>
<g id="_x23_ffffffff">
</g>
<g>
	<g id="_x23_050505ff">
		<path class="st0" d="M171.3,1.5c0.4-2,3-1,4.5-1.5c0.4,8.2,0.7,16.4-0.2,24.6c-1.5-0.6-4.3-0.4-4.4-2.6
			C171.3,15.2,171,8.3,171.3,1.5z"/>
		<path class="st0" d="M1204.1,137.7c6.2-0.3,12.5-0.2,18.7-0.2c1.8-0.2,2.6,1.4,3.5,2.6c-2.9,1.6-6.3,1.2-9.5,1.2
			c-4.5-0.1-9,0.2-13.5-0.4C1203.6,139.9,1203.8,138.8,1204.1,137.7z"/>
		<path class="st0" d="M1118.2,217.8c2.6-0.2,5.3-0.2,7.9,0c-0.1,1.2-0.3,2.4-0.4,3.5c-2.5,0-5.1,0-7.6,0
			C1118.2,220.2,1118.2,219,1118.2,217.8z"/>
		<path class="st0" d="M2271.7,217.9c4.2-1,3.5,4.4,3.5,7.1c-0.9,0.6-1.9,1.2-2.8,1.9C2271,224,2271,220.8,2271.7,217.9z"/>
		<path class="st0" d="M724,221.1c0.7-4.8,5.9-2.9,9.1-2.4c-0.2,0.8-0.6,2.4-0.8,3.2C729.5,221.8,726.7,221.9,724,221.1z"/>
		<path class="st0" d="M783.9,219.1c2.5-2.3,6.3-0.7,9.3-0.4c-0.9,3.4-4.5,3.8-7.4,3.1C784.4,221.8,784,220.2,783.9,219.1z"/>
		<path class="st0" d="M843.4,220.4c0.5-3.6,5.1-1.9,7.6-2.4c0.4,0.7,1.2,2.2,1.6,3C849.6,221.8,845.7,223.1,843.4,220.4z"/>
		<path class="st0" d="M867.9,218.5c2.8-0.9,5.7-0.5,8.4,0.4c-0.8,4.3-5.5,2.6-8.5,2.7C867.9,220.6,867.9,219.6,867.9,218.5z"/>
		<path class="st0" d="M2272.3,229.2c1,0.4,1.8,0.9,2.9,1.3c-0.1,2.3-0.1,4.7-0.3,7c-1.2,0.1-2.3,0.2-3.4,0.2
			C2271.3,235,2270.7,231.9,2272.3,229.2z"/>
		<path class="st0" d="M1211.8,244c0.7,0.1,2.2,0.3,2.9,0.4c0.8,2.4,0.4,5,0.4,7.4c-1.2,0.1-2.3,0.1-3.4,0.1
			C1211.1,249.3,1211.2,246.6,1211.8,244z"/>
		<path class="st0" d="M1386.2,272.7c2.8-1.1,5.7-0.4,8.5,0.2c-0.5,1-0.9,2.1-1.3,3.2c-2.6,0-5.2-0.1-7.8-0.5
			C1385.7,274.6,1386,273.6,1386.2,272.7z"/>
		<path class="st0" d="M1670.1,275.3c0.4-1.1,0.8-2.3,1.2-3.4c2.6,0,5.2,0.1,7.7,0.7c-0.2,0.8-0.6,2.4-0.9,3.2
			C1675.5,275.8,1672.8,275.8,1670.1,275.3z"/>
		<path class="st0" d="M1730.6,272.3c2.9-0.6,5.8-0.1,8.6,0.5c-1,3.7-5.2,3.7-8.2,2.9C1729.8,274.7,1729.7,273.5,1730.6,272.3z"/>
		<path class="st0" d="M1790.1,272.5c2.2-0.6,4.5-0.4,6.8-0.5c0.4,0.7,1.2,2.2,1.6,2.9c-2.5,0.8-5.1,1.7-7.7,0.7
			C1789.3,274.9,1789.1,273.8,1790.1,272.5z"/>
		<path class="st0" d="M1813.5,272.6c2.8-0.5,6-1.2,8.6,0.4c-0.2,4.2-5.1,2.4-7.9,2.8C1814,275,1813.7,273.4,1813.5,272.6z"/>
		<path class="st0" d="M2052.4,274.4c0.3-3.7,5.1-2,7.6-2.5c0.4,0.8,1.2,2.2,1.6,3C2058.6,275.8,2054.8,277.1,2052.4,274.4z"/>
		<path class="st0" d="M2076.5,272.6c2.9-0.7,6-0.8,8.9,0.3c-0.7,4.2-5.2,2.6-8.2,2.9C2077,275,2076.6,273.4,2076.5,272.6z"/>
	</g>
	<g id="_x23_010101ff">
		<path class="st0" d="M2413.1,2.6c1-0.4,1.9-1.2,3.1-1.1c3.9,5.5,5.7,12.2,5.7,18.8c11.4,0.1,22.9-0.2,34.4,0.2
			c0.2,0.7,0.7,2.2,1,2.9c-4.1,0.6-8.2,0.4-12.3,0.4c0,2.2,0,4.4,0,6.5c-0.9,0.1-2.6,0.2-3.5,0.3c-0.2-2.3-0.3-4.6-0.3-6.9
			c-6.3,0.1-12.6,0-18.9,0c0.6,7.5,1.4,14.9,2.2,22.3c22.1,4.6,44.2,9.3,66.3,13.8c-0.1,1.1-0.2,2.2-0.2,3.4
			c-6.2,0.3-12.3,0.1-18.5,0.2c0,3,0.1,5.9,0.1,8.9c-0.9,0-2.7,0-3.6,0c-0.3-3-0.3-5.9-0.2-8.9c-2.3,0-4.6,0-6.8,0c0,3,0,6,0.1,9
			c-1.1,0.1-2.2,0.3-3.2,0.4c-0.5-3.1-0.6-6.2-0.6-9.4c-10.6,0-21.2,0-31.7,0c7.8,77.9,15.5,155.8,23.2,233.7c93.5,0,187,0,280.5,0
			c0,1.3,0,2.7,0,4c-544.3,0-1088.7,0-1633-0.1c-365.6,0.1-731.2,0-1096.8,0.1c0-1.3,0-2.7,0-4c148.1,0,296.3,0,444.4,0
			c0-0.7,0.1-2.2,0.2-2.9c5.1-2.8,9.9-6.1,15.4-8.1c0-8.3,0-16.6,0-25c-1.4-1.5-2.8-3-4.2-4.5c-28.3,0-56.6,0.1-85,0
			c-3.9,0.1-7.2-3.8-6.3-7.6c0.8-3.6,2.7-6.8,4.2-10.1c11.6-25,23.3-50,34.9-74.9c2.6-5.9,8.7-10.4,15.3-10.4c23.1,0,46.2,0,69.3,0
			c4.6-9.6,9-19.2,13.5-28.9c3.6-7.4,11.7-13,20.2-12.3c62.3,0.1,124.7,0,187,0c3.6,0,7.2,2.7,7.7,6.4c0.6,3.1-0.6,6.1-1.9,8.9
			c-16.3,34.8-32.4,69.6-48.7,104.4c-3.4,7.4-10.9,12.7-19,12.9c-16-0.2-32.1,0.5-48.1-0.4c-1.9,2.1-4.3,3.9-5.7,6.4
			c-0.2,10.6,0.1,21.2-0.1,31.8c2,0.4,4,1,5.8,2.1c4.8,2.9,9.8,5.4,14.5,8.3c0,0.9-0.1,2.7-0.2,3.7c139.2,0,278.4,0,417.6,0
			c131.9,0.5,263.9,0.1,395.8,0.2c-0.1-19.9-0.1-39.7,0-59.6c-3.6,0-7.3,0.1-10.9-0.1c-0.4-4.8-0.3-9.5-0.1-14.3c39-0.1,78,0,117,0
			c0-6.5-0.1-13,0-19.5c-5-0.1-10.1,0.4-15.1-0.3c-1.6-1.8,0.7-3.2,2.2-3.8c19.2-9.4,38.6-18.6,57.8-28.1c1.6-0.8,3.5-1.8,5.2-0.6
			c20.6,10.1,41.3,20,61.9,30.1c-0.3,0.7-0.9,2-1.2,2.6c-4.9,0.2-9.9-0.1-14.8,0.3c0,31.1,0,62.2,0,93.3
			c107.1-0.5,214.2-0.1,321.2-0.2c139.5,0,278.9,0,418.3,0c3.4-33.7,6.5-67.4,10.1-101.1c2.9-32.3,6.5-64.5,9.5-96.8
			c1.2-11.9,2.2-23.8,3.7-35.7c-10.6-0.1-21.3,0-31.9,0c0.1,3.4,0,6.9-0.6,10.2c-4.6-1.3-3.5-6.6-3-10.2c-2.3,0-4.6,0-6.9,0
			c0.1,3.2,0.1,6.4-0.5,9.5c-1.1-0.2-2.2-0.5-3.2-0.7c-0.1-2.9,0-5.8,0-8.8c-5.9-0.2-11.8,0.4-17.7-0.3c-2.7-0.1-1.1-3,0.4-3.4
			c21.6-4.8,43.4-8.8,65-13.9c0.8-7.3,1.4-14.7,2.2-22.1c-6.3,0.1-12.5,0-18.8,0c-0.1,2.3-0.2,4.5-0.3,6.8c-1.2,0-2.4,0-3.5-0.1
			c-0.1-2.2-0.2-4.5-0.3-6.8c-3.9,0-7.9,0.2-11.8-0.2c0.1-0.8,0.3-2.4,0.5-3.2c11.5-0.1,23,0,34.5-0.1c0.5-4.7,0.5-9.5,2.9-13.7
			c1.3-1.9,1.6-5.6,4.6-5c1.7,2.9-0.9,5.7-1.9,8.3c5,0,10.1,0,15.1,0C2415.1,7.5,2414,5.1,2413.1,2.6 M2401.8,13.6
			c2.4,3.3,4.8,6.7,7,10.2c2.3-3.4,4.7-6.8,7.1-10.2C2411.2,13.6,2406.4,13.6,2401.8,13.6 M2399.7,17.1c-0.6,7.6-1.6,15.3-2.3,22.9
			c3.3-4.1,5.9-8.7,9.2-12.9C2404.2,23.8,2401.9,20.4,2399.7,17.1 M2411,27.2c3.2,4.2,5.8,8.9,9.2,13c-0.9-7.7-1.8-15.3-2.3-23.1
			C2415.6,20.4,2413.4,23.8,2411,27.2 M2397.9,45.9c7.1,0,14.3-0.1,21.4,0c-3.6-5.1-7.1-10.3-10.5-15.5
			C2405.1,35.5,2401.7,40.9,2397.9,45.9 M2424.8,49.9c0.4,3.2,0.6,6.5,0.7,9.8c14.8-0.2,29.7,0.4,44.5-0.4
			C2454.9,56.5,2439.8,53.3,2424.8,49.9 M2347.3,59.3c3.4,0.7,7,0.3,10.5,0.3c11.4,0,22.7,0.1,34.1,0c0.2-3.2,0.5-6.5,0.8-9.7
			C2377.6,53.2,2362.5,56.5,2347.3,59.3 M2395.3,59.7c8.9,0,17.9,0,26.9,0c-0.6-3.3-0.9-6.7-1-10c-8.2,0.1-16.5,0-24.7,0
			C2396.2,53,2395.8,56.3,2395.3,59.7 M2398.8,63.4c3.3,2.9,6.8,5.7,10.1,8.7c3.2-3,6.6-5.8,9.9-8.7
			C2412.1,63.4,2405.4,63.5,2398.8,63.4 M2394.9,65.1c-0.5,7-1.2,14-2.1,21c4.5-3.7,8.7-7.8,13.2-11.4
			C2402.2,71.6,2398.7,68.2,2394.9,65.1 M2411.8,74.5c4.2,3.8,8.7,7.2,12.8,11.2c-0.6-6.8-1.3-13.6-2-20.4
			C2418.8,68.1,2415.5,71.6,2411.8,74.5 M2393.9,90.2c5,3.8,10,7.7,14.9,11.6c5.2-3.8,10.1-8.1,15.3-11.8c-5.1-4.1-10-8.6-15-12.7
			C2403.7,81.2,2399.1,86,2393.9,90.2 M2392.1,93.4c-0.6,7.8-1.6,15.6-2.3,23.5c5.4-4.2,10.7-8.4,16.1-12.7
			C2401.2,100.8,2396.6,97.1,2392.1,93.4 M2411.9,104.3c5.3,4.1,10.5,8.3,15.8,12.4c-0.9-7.6-1.5-15.3-2.3-23
			C2420.9,97.2,2416.5,100.8,2411.9,104.3 M2390.7,121.1c6,5,12.1,10,18.1,15.1c6.2-5,12.2-10.2,18.4-15.1
			c-6.1-4.8-12.1-9.7-18.3-14.3C2402.9,111.6,2396.7,116.3,2390.7,121.1 M514.4,116.9c-4.6,2-8.4,5.8-10.4,10.4
			c-16.5,35.2-32.8,70.5-49.3,105.7c-1.3,2.9-1.5,7.7,2.4,8.5c6.5,0.8,13.1,0.1,19.7,0.4c56,0.2,112-0.5,168,0
			c6,0.5,12.1-2.3,15.8-7c2.3-3,3.6-6.6,5.3-10c15.5-33.3,31-66.6,46.6-100c0.7-1.5,1.2-3.2,1.2-4.9c-0.3-2.8-3.2-4.5-5.8-4.3
			c-60.7,0-121.3,0-182,0C522,115.8,518,115.3,514.4,116.9 M2389,124.7c-1,10.2-2,20.3-2.9,30.5c6.4-5.6,13.1-10.9,19.6-16.4
			C2400.3,133.9,2394.6,129.4,2389,124.7 M2411.7,138.8c6.7,5.4,13.3,10.9,19.8,16.6c-1.2-10.2-2-20.4-3.1-30.6
			C2423,129.6,2417.3,134.1,2411.7,138.8 M2388.1,158.3c7,5.2,13.8,10.6,20.8,16c6.8-5.4,13.8-10.6,20.6-15.9
			c-7-5.6-13.8-11.4-20.7-17.2C2401.9,146.9,2395.1,152.7,2388.1,158.3 M405.4,167.6c-12.1,26.2-24.4,52.4-36.6,78.6
			c-0.7,1.5-1.1,3.2-1.6,4.8c0.9,0.9,1.9,1.8,2.8,2.7c48.9-0.1,97.9,0,146.8,0c5.3-0.2,9.6-4.3,12.1-8.7
			c-13.4,0.6-26.8,0.3-40.2,0.1c-10.7,0.5-21.4-0.1-32.1-0.3c-5.6-1.1-7.5-8.1-4.9-12.7c11.6-25.1,23.3-50.2,35.1-75.2
			c-22.7,0-45.4,0-68.1,0C412.5,157,407.4,162,405.4,167.6 M2385.5,160.8c-1.1,11.3-2.2,22.6-3.5,33.9c8-5.8,15.7-12.1,23.6-18.1
			C2399,171.2,2392,166.3,2385.5,160.8 M2411.9,176.6c7.8,6.1,15.7,12.1,23.5,18.2c-0.8-11.3-2.3-22.6-3.2-33.9
			C2425.5,166.2,2418.6,171.4,2411.9,176.6 M1527.2,200.4c35.4-0.1,70.8,0.2,106.2-0.1c-17.3-9.1-35.1-17.3-52.7-25.8
			C1562.8,182.9,1545,191.7,1527.2,200.4 M2383.4,198.6c8.4,7.2,16.8,14.2,25.2,21.4c8.5-7.2,17-14.4,25.6-21.5
			c-8.6-6.3-16.8-13.1-25.4-19.4C2400.2,185.5,2391.9,192.2,2383.4,198.6 M2381.3,202c-1.3,14.9-2.9,29.8-4.3,44.7
			c9.3-8.3,19.1-16.1,28.6-24.2C2397.5,215.6,2389.5,208.6,2381.3,202 M2411.6,222.5c9.7,8.2,19.4,16.4,29.1,24.7
			c-1.6-15.1-3.1-30.2-4.6-45.3C2427.9,208.7,2419.7,215.6,2411.6,222.5 M1536.3,204.1c0,6.4,0,12.8,0,19.2c2,0,4.1,0,6.1,0
			c0.6,4.4,0.4,8.8,0.4,13.2c-0.4,0.3-1.1,1-1.5,1.3c-1.7,0-3.4,0-5.1,0c0,19.9,0,39.7,0,59.6c29.6,0,59.2,0,88.9,0
			c-0.2-31.2,0.3-62.4-0.3-93.5C1595.4,204,1565.9,203.4,1536.3,204.1 M2376.5,252c-1.7,15-3,30.1-4.6,45.2c24.6,0,49.1,0,73.7,0
			c-1.7-14.4-2.8-28.8-4.3-43.2c0-1.2-0.9-1.9-1.7-2.6c-10.3-8.9-20.8-17.6-31.1-26.5C2397.9,234,2387.2,243,2376.5,252 M1419,226.9
			c0,2.3,0,4.7,0,7c40,0,80.1,0,120.1,0c0-2.4,0-4.7,0-7C1499,227,1459,227,1419,226.9 M1430.2,297.4c4,0,8,0,12,0
			c0.9-11.1-0.1-22.3,0.3-33.4c7.5,0,15,0,22.5,0c-0.1,11.1,0,22.3-0.1,33.4c22.5,0,45,0,67.6,0c-0.1-19.9-0.1-39.7,0-59.6
			c-34.1,0-68.2,0-102.3,0C1430.3,257.6,1430.3,277.5,1430.2,297.4 M517.4,256.7c-12.6,0.1-25.3-0.1-37.9,0.1
			c-1.9,0.9-3.1,2.8-4.6,4.3c0,8.4,0.1,16.7,0,25.1c5.1,1.8,9.8,4.7,14.4,7.6c1.3,0.5,1,2.2,1.4,3.3c21.1,0.1,42.3,0,63.4,0
			c0.2-1.7-0.5-4.2,1.7-4.8c6.1-3.2,11.8-7.3,18.4-9.5c0.2-10.6-0.3-21.1,0.3-31.7c-2-1.9-3.7-4.1-5.8-5.8
			c-12.1-0.4-24.3,0.5-36.4-0.5C529.6,250.8,524.4,256.4,517.4,256.7 M573.1,244.9c1.4,1.5,2.8,3,4.3,4.5c0,11.4,0.3,22.7-0.1,34.1
			c4.1,0,8.1,0,12.2,0c0.5-3.4,0.4-6.9,0.1-10.3c0-7.9-0.3-15.8,0.5-23.6c1.1-1.7,2.6-3.1,3.9-4.6
			C587.1,245.2,580.1,245.6,573.1,244.9 M460.3,256.7c0.9,1.1,1.9,2.2,2.7,3.5c0.2,8.8,0.1,17.6,0,26.5c2.9,0,5.9,0,8.9,0
			c-0.4-9-0.4-18,0.1-26.9c1-1,2-1.9,3-2.9C470.1,256.7,465.2,256.8,460.3,256.7 M1446.2,297.4c5.1,0,10.2,0,15.3,0
			c-0.1-9.9-0.1-19.8,0-29.6c-5.2,0-10.3,0-15.4,0C1446.2,277.6,1446.2,287.5,1446.2,297.4 M556.4,296.8c2.1,0.3,4.3,0.4,6.4,0.4
			c15.8-0.1,31.7,0,47.5-0.1c-0.1-0.5-0.3-1.5-0.4-2c-5.1-2.7-9.9-5.7-15-8.4c-7.3-0.6-14.7,0.2-22-0.4
			C567.5,290,560.9,292,556.4,296.8 M459.2,289.9c-4.4,1.9-8.5,4.4-12.5,7.1c13.8,0.3,27.6,0.3,41.4,0c-3.8-2.7-8-5-12.2-7
			C470.4,289.4,464.8,289.3,459.2,289.9z"/>
		<path class="st0" d="M209.4,58.5c7.1-1.2,14.3-0.5,21.4-0.6c2.7-0.7,4.6,3.1,2.1,4.6c-7.5,0.7-15.1,0.5-22.6,0
			C209.8,61.3,209.7,59.9,209.4,58.5z"/>
		<path class="st0" d="M2258.3,142.9c8-1.6,16.3-0.5,24.5-0.8c2.7-0.1,7.1,0.3,7.1,4c-0.1,3.8,0.8,8-0.8,11.5
			c-3.9,3.3-9.6,1.2-14.3,1.8c-5.8-0.6-12.4,1.4-17.6-1.6c-1.6-3.3-0.8-7.1-1-10.7C2256,145.4,2257,143.9,2258.3,142.9 M2260,145.9
			c0,3.2,0,6.3,0,9.5c8.8,0.4,17.5,0.2,26.3,0c0.1-3.2,0.1-6.3-0.2-9.5C2277.4,145.9,2268.7,145.9,2260,145.9z"/>
		<path class="st0" d="M570.8,171.1c1.8-4.5,5.8-8.4,10.8-8.5c6.2-0.1,12.5-0.2,18.7,0c3.6,0.3,5,4.4,3.7,7.4
			c-2.5,6.1-5.6,12-8.3,18c-2,4.7-7.1,7.4-12.1,7.3c-5.6-0.1-11.3,0.4-16.9-0.3c-2.6-0.1-3.7-2.6-4.6-4.7
			C564.6,183.7,568,177.5,570.8,171.1 M573.5,172.8c-2.7,6-5.8,11.9-8.1,18.1c1.1,0.4,2.1,1.1,3.4,1.1c5.7,0,11.3,0.1,17,0
			c3.9-0.2,6.6-3.6,8-6.9c2.6-6.2,6-12,8.2-18.4c-1.7-0.5-3.4-1-5.2-0.8c-5.4,0.1-10.9-0.6-16.3,0.1
			C577,166.7,574.8,169.8,573.5,172.8z"/>
		<path class="st0" d="M651.7,171.1c1.7-4.2,5.3-8,10-8.4c5.7-0.4,11.4-0.1,17.1-0.2c2.4-0.1,5.6,0.3,6.4,3c1.1,4.8-2.4,8.8-4.1,13
			c-3,5.9-4.7,14-11.9,16.1c-6.4,1.2-13,0.5-19.5,0.6c-3.2,0.2-5.7-2-6.5-5C645.5,183.6,649,177.5,651.7,171.1 M655.2,171.3
			c-3.1,6.4-6.1,12.9-8.9,19.4c1,0.6,2,1.5,3.4,1.3c5.7,0,11.4,0.1,17.1-0.1c3.9-0.2,6.6-3.5,8-6.9c2.5-5.9,5.7-11.6,8-17.6
			c-0.3-0.4-0.8-1.1-1.1-1.4c-5.6-0.7-11.2,0.2-16.8-0.3C660.8,165.1,656.8,167.6,655.2,171.3z"/>
		<path class="st0" d="M425.4,205c2.2-4.6,3.9-10.6,9.5-11.9c4.6-0.4,9.3-0.1,14-0.2c1.9-0.3,3.3,1.2,4.8,2.1c0.1,5.2-3.2,9.4-5,14
			c-1.4,3.6-3.8,7.5-7.8,8.5c-5,0.3-10,0.1-15,0.1c-1.6,0.1-3.1-1.1-3.7-2.5C421.5,211.4,424.1,208.3,425.4,205 M434.2,196.7
			c-2.4,1.4-3.3,4-4.4,6.4c-1.6,3.8-3.7,7.3-4.9,11.3c5,0.2,10.1,0.2,15.2,0.1c2.4-0.6,4-2.8,5-5c1.7-3.9,3.6-7.6,5.2-11.5
			c1.3-2.3-2.1-2-3.4-2C442.6,196.1,438.2,195.4,434.2,196.7z"/>
		<path class="st0" d="M771.4,219.2c3.2-1.7,6.7-1.6,9.9-0.1c-0.6,0.9-1.2,1.8-1.8,2.7C776.5,221.7,772.6,222.8,771.4,219.2z"/>
		<path class="st0" d="M1141,219c2.9-1.8,6.3-1.5,9.6-1.1C1150.9,223,1143.1,222.4,1141,219z"/>
		<path class="st0" d="M1478.7,247.8c12.9-0.3,25.9-0.2,38.8,0c0.2,10,1,20-0.2,29.9c-12.9-0.6-25.8,0.2-38.6-0.4
			C1478.2,267.5,1478.3,257.6,1478.7,247.8 M1482.2,251.6c0.1,3-0.1,6.1,0.1,9.1c4.6,0.2,9.3-0.4,14-0.1c-0.1-3-0.1-6,0-9.1
			C1491.6,251.6,1486.9,251.6,1482.2,251.6 M1500,251.4c0.1,3.1,0.1,6.2,0.1,9.3c4.7-0.1,9.4-0.3,14.1,0.1c0.1-3.1,0.1-6.1,0.2-9.2
			C1509.5,251.5,1504.7,251.7,1500,251.4 M1482.2,264.5c0,3.1,0,6.2,0,9.4c4.7,0,9.4,0,14.1,0c0-3.1,0-6.3,0-9.4
			C1491.6,264.5,1486.9,264.5,1482.2,264.5 M1500,264.5c0.1,3.1,0.1,6.2,0,9.3c4.8,0,9.5,0,14.3,0c0-3.1,0-6.3,0-9.4
			C1509.5,264.5,1504.8,264.5,1500,264.5z"/>
		<path class="st0" d="M1362.4,272.8c2.5-0.9,5.1-0.5,7.7-0.4c0,1.1,0,2.2,0,3.3c-2.7,0.3-5.4,0.3-8-0.2
			C1362.1,274.6,1362.2,273.7,1362.4,272.8z"/>
		<path class="st0" d="M1717.4,273.2c3.2-1.7,6.7-1.6,9.9-0.1c-0.6,0.9-1.2,1.8-1.8,2.7C1722.5,275.7,1718.6,276.8,1717.4,273.2z"/>
		<path class="st0" d="M1338.5,272.4c2.6-0.2,5.1-0.2,7.7,0c0.1,1.1,0.1,2.2,0.2,3.3c-2.5,0.1-5.1,0.6-7.6,0
			C1338.7,274.9,1338.6,273.3,1338.5,272.4z"/>
	</g>
	<g id="_x23_070707ff">
		<path class="st0" d="M131.8,22.1c-2.2-1.6-1.4-4.8,0.9-5.9c6.6,4.9,11.1,12.2,18.2,16.5c-1.1,1.1-2.1,2.3-3.2,3.5
			C141.1,33,137.2,26.7,131.8,22.1z"/>
		<path class="st0" d="M1230.8,275.5c0-4.6,5.3-3.4,8.4-3.1c-0.1,1.1-0.1,2.2-0.1,3.4C1236.3,276.1,1233.5,276.1,1230.8,275.5z"/>
		<path class="st0" d="M1350.5,272.3c2.5,0,5.1-0.1,7.6,0.1c0.1,1,0.2,2.1,0.3,3.2c-2.6,0.4-5.3,0.4-8,0.2
			C1350.5,274.7,1350.5,273.5,1350.5,272.3z"/>
	</g>
	<g id="_x23_0a0a0aff">
		<path class="st0" d="M198.2,32c5.2-5.1,10.1-10.5,15.7-15.3c1.3,0.6,2.6,1.1,3.9,1.7c-4.2,6.7-10.6,11.6-16,17.2
			c-0.8-0.2-2.4-0.5-3.2-0.7C198.6,34.2,198.4,32.7,198.2,32z"/>
		<path class="st0" d="M856.1,218c2.8,0,5.6,0,8.4,0.7c-0.7,4.4-5.3,3.2-8.4,3.1C856.1,220.5,856.1,219.2,856.1,218z"/>
		<path class="st0" d="M1035.1,218c2.7,0.3,5.8-0.8,8.1,1.1c-0.2,0.6-0.6,2-0.8,2.6c-2.4,0.2-4.9,0.1-7.3,0
			C1035,220.5,1035,219.2,1035.1,218z"/>
		<path class="st0" d="M1058.5,217.8c3.2-0.1,7.5-1.3,9.2,2.3c-2.3,2.7-6,1.6-9.1,1.6C1058.5,220.7,1058.5,218.8,1058.5,217.8z"/>
		<path class="st0" d="M2244.1,272c2.2,0,4.5-0.2,6.7,0.2c1.6,0.6,0.9,2.3,0.8,3.6c-2.6,0.1-5.1,0-7.6,0
			C2244,274.5,2244,273.2,2244.1,272z"/>
		<path class="st0" d="M1325.3,274.8c1.9-3.4,6-2.5,9.3-2.4c0,1.1-0.1,2.3-0.1,3.4C1331.3,276.1,1328.1,276.2,1325.3,274.8z"/>
		<path class="st0" d="M1802.1,272c2.8,0,5.6,0,8.4,0.7c-0.7,4.4-5.3,3.2-8.4,3.1C1802.1,274.5,1802.1,273.2,1802.1,272z"/>
		<path class="st0" d="M1980.9,272.1c3.2-0.5,6.4-0.5,9.3,1c-0.7,1-1.3,2-1.9,3c-2.5,0-4.9,0-7.4-0.2
			C1980.9,274.6,1980.9,273.3,1980.9,272.1z"/>
		<path class="st0" d="M2004.4,272.1c2.8-0.1,5.7-0.4,8.5,0.3c2.2,4.1-3.7,4-6.3,3.7C2004.3,276.1,2004.4,273.7,2004.4,272.1z"/>
		<path class="st0" d="M2065.1,272c2.8,0,5.7,0,8.4,0.7c-0.8,4.3-5.3,3.2-8.5,3C2065.1,274.5,2065.1,273.2,2065.1,272z"/>
		<path class="st0" d="M2267.9,272.2c2.9-0.5,6.1-0.6,8.6,1.3c-0.5,0.6-1.4,1.7-1.9,2.3c-2.2-0.1-4.3,0.1-6.4-0.2
			C2267.2,274.6,2267.1,273.5,2267.9,272.2z"/>
	</g>
	<g id="_x23_030303ff">
		<path class="st0" d="M166.9,32.3c5.9-1.8,12.3-0.5,18,1.7c10,4.2,17,14.4,17.4,25.2c0.7,14.4-10.9,28.5-25.5,29.6
			c-8.6,1-17.7-1.8-23.6-8.2c-9.6-9.4-11.1-26-3-36.9C154.3,38.2,160.3,34,166.9,32.3 M166.2,37.9C156.1,41,148.9,51.7,150,62.2
			c0.8,11.9,11.7,22.3,23.8,21.7c14.6,0.7,26.8-14.8,23-28.8C194.1,42,178.8,33.1,166.2,37.9z"/>
		<path class="st0" d="M642.8,121.9c6.2,0.2,12.5-0.6,18.6,0.7c1.5,1,2.2,2.7,3,4.2c-2.4,7-6.1,13.4-9,20.2
			c-1.9,4.6-6.7,7.9-11.7,7.7c-5.4,0-10.8,0-16.2,0c-2.4,0.2-4.9-1.3-5.5-3.6c-0.6-4,2.2-7.4,3.7-10.9c2.2-4.5,3.9-9.3,6.7-13.5
			C634.8,123.5,638.8,121.8,642.8,121.9 M638.8,125.7c-2.9,1.1-4.9,3.7-6,6.5c-2.5,5.7-5.4,11.2-7.7,16.9c0.1,0.5,0.3,1.6,0.4,2.2
			c6,0.6,12.1,0.1,18.2,0.3c4.7,0.4,8-3.7,9.6-7.6c2.6-5.9,5.5-11.6,7.9-17.6c-2.5-1.7-5.7-1.1-8.6-1
			C648.1,125.6,643.4,124.8,638.8,125.7z"/>
		<path class="st0" d="M516.1,122.8c7.8-1.6,15.8-0.7,23.7-0.3c2.6,1.2,3.3,4.6,2.3,7.1c-2.6,5.9-5.5,11.7-8.2,17.6
			c-1.8,4.3-6.3,7.4-11,7.5c-5.7,0-11.5,0.1-17.2,0c-3.2,0.1-6.3-3.3-5-6.4c2.3-5.9,5.4-11.5,7.9-17.4
			C510,127.4,512.6,124.2,516.1,122.8 M511.6,131.9c-2.7,6.3-6.1,12.3-8.3,18.9c4.3,1.6,9,0.6,13.5,0.9c3.4-0.2,7.2,0.8,10.3-1.2
			c2.2-1.4,3.6-3.7,4.7-6.1c2-4.6,4.2-9.1,6.3-13.7c0.6-1.6,1.8-3.2,1.1-4.9c-6.5-0.8-13-0.2-19.5-0.3
			C515.8,125.3,513,128.6,511.6,131.9z"/>
		<path class="st0" d="M598.8,122.3c3.4-0.9,6.9,0.2,10.3-0.2c3.9-0.3,7.8-0.4,11.6,0.5c1.8,0.7,2.2,2.8,3.2,4.2
			c-2.3,7.1-6.1,13.6-9,20.4c-2,4.2-6.3,7.5-11.1,7.4c-5.4,0-10.7,0-16.1,0c-2.2,0.1-4.8-0.6-5.8-2.8c-1.3-2.4,0.2-5,1.1-7.2
			c2.5-4.9,4.7-10,7.1-15C591.8,126.1,594.9,123.1,598.8,122.3 M592.9,131.2c-2.4,5.2-5,10.4-7.3,15.7c-0.6,1.6-2,3.6,0.3,4.5
			c6.6,0.2,13.3,0.3,19.9,0c6-1.7,7.2-8.5,9.8-13.3c1.5-4.2,4.8-8,4.7-12.6c-6.5-0.2-13,0-19.5-0.2
			C597.2,125.2,594.2,128.1,592.9,131.2z"/>
		<path class="st0" d="M418.1,163.7c5.2-0.6,10.5-0.2,15.8-0.2c2.2-0.3,3.4,2,4.1,3.8c-1.6,5.1-4.2,9.8-6.4,14.7
			c-1.3,3.1-4.2,5.9-7.7,5.9c-5.2-0.1-10.4,0.5-15.5-0.3c-4.1-2.4-1.1-7.3,0.4-10.4C411.4,172.4,412.4,165.7,418.1,163.7
			 M415.6,170.1c-2.4,4.8-4.6,9.6-6.7,14.5c5.2,0.5,10.5,0.4,15.8,0c2.2-0.7,3.4-2.9,4.4-4.9c1.9-4.4,4.2-8.5,5.8-13
			c-4.7-0.4-9.5-0.4-14.2-0.3C418.5,166.6,416.4,168,415.6,170.1z"/>
		<path class="st0" d="M447.4,163.9c4-0.9,8.2-0.2,12.4-0.4c2.4,0.2,5.6-0.8,7,1.7c2,3.1-1,6.4-2,9.2c-2.5,4.7-3.7,11.3-9.4,13.2
			c-5.2,0.5-10.4,0.1-15.6,0.2c-2.9,0.5-4.7-3-3.7-5.4c1.4-3.8,3.4-7.4,5-11.1C442.3,168.2,444.2,165.1,447.4,163.9 M444.7,171
			c-2,4.5-4.4,8.9-6.1,13.6c5.2,0.4,10.5,0.4,15.7,0c2.2-0.5,3.4-2.7,4.3-4.6c1.9-4.5,4.2-8.8,6-13.3c-5-0.4-10.1-0.5-15.1-0.1
			C447.2,166.8,445.7,169.1,444.7,171z"/>
		<path class="st0" d="M471.4,210.7c1.9-4.5,6.4-7.8,11.4-7.7c6,0.1,12-0.2,17.9,0.1c2.6,0.3,3.7,2.8,4.5,4.9
			c-2.4,6.6-5.7,12.8-8.5,19.1c-1.7,4.1-5.4,7.9-10,8.4c-6.8,0.2-13.7,0.5-20.5-0.1c-2.8-1-4.3-4.5-2.9-7.2
			C465.8,222.2,468.8,216.6,471.4,210.7 M474.3,212c-2.7,6-5.9,11.9-8.2,18.1c-1,2.3,2.1,2.6,3.6,2.5c5.7-0.1,11.4,0.2,17.1-0.1
			c2.8-1,5.4-3.1,6.6-5.9c2.9-6.5,6.2-12.7,8.7-19.3c-1.4-0.6-2.7-1.5-4.2-1.4c-4.7-0.1-9.4,0-14.2,0
			C479.8,205.7,475.8,208.3,474.3,212z"/>
		<path class="st0" d="M512,210.4c2-4.6,6.7-7.7,11.7-7.5c5.4,0,10.7,0,16.1,0c2.8-0.2,5.9,2.1,5.4,5.1c-0.4,4.3-3.2,7.8-4.7,11.8
			c-2.9,5.9-5,13.8-12.3,15.5c-6.5,0.6-13.1,0.5-19.6,0.2c-1.4-0.1-2.8-0.7-4.1-1c-0.9-2-1.9-4.2-0.7-6.4
			C506.4,222.1,509.3,216.3,512,210.4 M514.8,211.9c-2.9,6.2-5.8,12.3-8.6,18.5c0.4,0.5,1.1,1.6,1.5,2.2c5.7,0,11.3,0,17,0
			c4,0.1,7.8-2.4,9.3-6.2c2.6-6.1,6-12,8.2-18.4c0.6-1.8-2.2-1.9-3.3-2.1c-4.7-0.1-9.4,0-14.1-0.1
			C520.6,205.5,516.5,208.1,514.8,211.9z"/>
		<path class="st0" d="M561,203.3c5.5-0.8,11.2-0.1,16.8-0.3c2.8-0.2,6.6,0.1,7.8,3.2c0.9,3.8-1.5,7.1-3,10.4
			c-2,4.2-3.8,8.4-5.8,12.5c-1.9,3.6-5.7,6.3-9.9,6.5c-6.3,0.3-12.6,0.3-18.9-0.1c-3.3-0.4-4.9-4.3-3.7-7.2c2.1-5.1,4.6-10,6.9-15
			C552.9,208.8,555.9,204.2,561,203.3 M555.7,211.1c-2.2,4.5-4.2,9.1-6.4,13.6c-1,2.2-2.5,4.5-2.2,7c0.4,0.2,1.2,0.5,1.6,0.7
			c6,0.2,12.1,0.2,18.1,0c4.6-0.4,7.3-4.5,8.8-8.5c2.3-5.8,6-11.1,7.2-17.2c-6.7-1.9-13.6-0.1-20.4-1
			C559.8,207,557,208.4,555.7,211.1z"/>
		<path class="st0" d="M1571.5,218.9c6-3.4,13.9-3,19.7,0.8c4.9,3.5,8.7,9.2,8.4,15.4c0.5,5.4-2.2,10.4-5.4,14.5
			c-0.4,7.8,0,15.7-0.2,23.6c-1.6,0.1-3,0.2-4.6,0.3c-0.4,3.3,0.2,7.2-2.5,9.7c-3.2,4-10,3.7-13-0.4c-2.1-2.6-1.7-6.2-1.8-9.3
			c-1.6-0.1-3.1-0.2-4.6-0.2c-0.7-7.9,0.4-15.8-0.4-23.7c-1.6-2.6-3.7-5-4.5-8C1559.5,233.2,1563.6,223,1571.5,218.9 M1573,222.5
			c-5.8,3.4-9.2,10.9-7,17.5c0.9,3.3,3.3,5.8,5.4,8.3c-0.1,3.7,0,7.5-0.1,11.2c2.5,0,5.1,0,7.7,0c-0.2-3.3-2-10.1,3.1-10
			c0.6,3.3,0.4,6.7,0.2,10c2.6,0,5.3,0,7.9,0c0-3.7-0.2-7.5,0-11.2c2.5-3.2,5.5-6.6,5.7-11c0.9-7.2-4.1-14.3-11-16.4
			C1580.9,220.2,1576.5,220.2,1573,222.5 M1571.4,263c0,2.2,0,4.4,0,6.6c6.3,0,12.6-0.2,19,0.1c-0.1-2.2-0.1-4.5-0.1-6.8
			C1583.9,263.2,1577.6,263.4,1571.4,263 M1575.8,273.5c0.3,2.6-0.5,5.9,1.8,7.8c2.3,2.2,6.7,1,7.5-2.1c0.3-1.9,0.2-3.8,0.3-5.7
			C1582.2,273.4,1579,273.4,1575.8,273.5z"/>
		<path class="st0" d="M700,219.8c2.6-2.7,6.5-1.9,9.6-0.9c-0.4,0.7-1.1,2.2-1.5,2.9c-2.1,0-4.1,0-6.1,0
			C701.5,221.3,700.5,220.3,700,219.8z"/>
		<path class="st0" d="M760.4,218.2c2.6-0.3,5.3-0.3,8,0.1c-0.1,1.1-0.1,2.3-0.2,3.4c-2.5,0-5.1,0-7.6-0.1
			C760.5,220.5,760.4,219.4,760.4,218.2z"/>
		<path class="st0" d="M880.2,218.3c2.4-0.5,4.8-0.4,7.2,0c0,1.2,0.1,2.3,0,3.5c-2.7,0.1-5.4,0.1-8.1,0
			C879.5,220.8,880,219.1,880.2,218.3z"/>
		<path class="st0" d="M987,219.1c2.2-1.8,5.8-1.4,8.2-0.3c0,1-0.1,2-0.1,3c-2.5,0.1-5.1,0.2-7.6-0.1
			C987.3,221,987.1,219.7,987,219.1z"/>
		<path class="st0" d="M1024,218.4c2.9-1,6.4-0.6,8.1,2.1c-2.7,1.4-5.8,1.6-8.7,1.1C1022.1,220.7,1022.3,218.7,1024,218.4z"/>
		<path class="st0" d="M1267.6,272.5c2.4-0.3,4.9-0.1,7.4-0.2c0,1.1,0,2.3,0,3.4c-2.9,0.2-5.9,0.5-8.7-0.5
			C1266.7,274.6,1267.3,273.2,1267.6,272.5z"/>
		<path class="st0" d="M1279.2,272.5c1.2-0.2,2.5-0.4,3.8-0.6c1.5,0.3,2.9,0.6,4.4,1c-0.3,1-0.6,1.9-0.9,2.9c-2.4,0.2-4.9,0.1-7.3,0
			C1279.2,274.7,1279.2,273.6,1279.2,272.5z"/>
		<path class="st0" d="M1646,273.8c2.6-2.7,6.6-1.9,9.8-0.8c-1,3.7-4.9,2.7-7.8,2.8C1647.5,275.3,1646.5,274.3,1646,273.8z"/>
		<path class="st0" d="M1706.1,272.4c2.7-0.5,5.5-0.5,8.3-0.1c-0.1,1.1-0.2,2.3-0.2,3.4c-2.4,0-4.8,0.1-7.1-0.1
			C1706.6,274.6,1706.3,273.5,1706.1,272.4z"/>
		<path class="st0" d="M1826.2,272.3c2.4-0.5,4.9-0.4,7.3,0c0,1.1,0,2.3,0,3.4c-2.7,0.1-5.4,0.1-8.1,0
			C1825.5,274.8,1825.9,273.1,1826.2,272.3z"/>
		<path class="st0" d="M1933.2,272.6c2.5-1.2,5.6-0.9,8.2-0.2c0.5,1.1,0.4,2.2-0.3,3.3c-2.6,0.4-5.4,0.4-7.9-0.1
			C1932.9,274.6,1932.9,273.6,1933.2,272.6z"/>
		<path class="st0" d="M1968,274.2c1.4-3,5-2.4,7.8-2.2c2.3-0.1,2.5,4,0.1,3.9C1973.2,276.1,1970,276.6,1968,274.2z"/>
		<path class="st0" d="M2089.1,272.3c2.4-0.6,4.9-0.5,7.3-0.1c0,1.1,0,2.3,0.1,3.4c-2.7,0.1-5.4,0.1-8.1,0
			C2088.5,274.6,2088.8,273.5,2089.1,272.3z"/>
		<path class="st0" d="M2196.3,272.6c2.5-0.8,5.5-1.1,7.9,0.2c0,1-0.1,2-0.1,2.9c-2.7,0.1-5.3,0.1-7.9,0
			C2196.1,274.7,2196.2,273.6,2196.3,272.6z"/>
		<path class="st0" d="M2231.3,274.2c1.8-3.6,7.6-2.7,9.9,0.2C2238.4,275.8,2233.5,277.2,2231.3,274.2z"/>
	</g>
	<g id="_x23_000000ff">
		<path class="st0" d="M113.7,62.7c0.1-1.6-0.9-3.9,1.1-4.7c7.5-0.2,15-0.4,22.4,0.3c0.1,1.3,0.2,2.7,0.3,4
			C129.6,63.5,121.6,62.7,113.7,62.7z"/>
		<path class="st0" d="M1193.1,167.7c0.3-5.4-0.8-11.1,0.5-16.3c3.4-0.2,6.8-0.1,10.2,0.1c0.1,5.3,0.5,10.7,0.1,16
			c1.2,0.1,2.4,0.2,3.6,0.4c0.3-5.4-0.8-11,0.6-16.2c3.4-0.9,7-0.9,10.4,0.2c-0.1,5.3,0,10.6,0,15.9c1,0,2.9,0,3.9,0
			c-0.1-5.4,0-10.8,0-16.2c3.7-0.3,7.3-0.3,11,0c0,5.4,0,10.8-0.1,16.2c2.4,0,4.9-0.1,7.2,0.4c0,1-0.1,2.1-0.2,3.1
			c-3.6,0.1-7.2,0.1-10.8-0.3c0-5.4,0-10.8,0-16.2c-1.2,0-2.4,0-3.6,0.1c0,5.3,0.4,10.6-0.1,16c-3.5,1-7.2,0.6-10.8,0.1
			c0-5.4,0-10.7,0-16.1c-1,0-2.9,0-3.9,0c-0.1,5.5,0.2,11-0.2,16.5c-3.6,0-7.1,0-10.7,0c-0.3-5.5-0.1-11-0.1-16.5
			c-1.3,0-2.6,0-3.8,0c0,5.5,0,11,0,16.5c-3.4-0.1-6.9,0.3-10.3-0.2c-0.2-0.8-0.7-2.3-0.9-3.1C1188,167.7,1190.6,167.7,1193.1,167.7
			z"/>
		<path class="st0" d="M2263.9,177.8c6.2-0.1,12.4-0.2,18.7,0.1c-0.1,0.7-0.2,2.2-0.3,2.9c-6.1,0.8-12.3,0.6-18.4,0
			C2263.9,180.1,2263.9,178.5,2263.9,177.8z"/>
		<path class="st0" d="M1186.2,189.9c1.7-1,3.7-0.9,5.6-0.9c15,0.1,30,0,45,0c3.2,0,6.7,2.6,6.6,6c0,7.4,0,14.7,0,22
			c0,2.7-2.4,4.8-4.7,5.7c-16.9,0.8-33.9,0.6-50.9,0c-2.5-0.6-4.8-2.9-4.7-5.6c-0.4-6.7-0.1-13.4-0.2-20.1
			C1182.8,194.4,1183.6,191.2,1186.2,189.9 M1186.6,197c0,6.1,0,12.1,0,18.2c-0.3,2.3,1.7,4.7,4.1,4.3c15.4,0,30.9-0.1,46.3,0
			c0.6-0.3,1.8-1,2.3-1.3c0.3-8.2,0.4-16.4,0-24.6c-2.7-1.2-5.7-0.8-8.5-0.9c-13.7,0-27.4,0-41.1,0
			C1187.6,192.8,1186.4,195.2,1186.6,197z"/>
		<path class="st0" d="M795.2,219c3-1.1,6.1-1.2,9.2-0.5c-0.1,0.7-0.4,2.1-0.6,2.9c-2.2,0.5-4.5,0.4-6.7,0.5
			C796.7,221.2,795.7,219.7,795.2,219z"/>
		<path class="st0" d="M939.2,218.5c3.1-0.6,6.3-0.8,9.2,0.6c-1.3,3.7-5.3,2.5-8.3,2.7C939.9,221,939.4,219.3,939.2,218.5z"/>
		<path class="st0" d="M998.6,218.6c2.3-0.4,4.8-0.9,7.2-0.4c1.8,0.3,1,2.2,1.2,3.5c-2.5,0-5,0.4-7.4-0.1
			C999.1,220.5,998.8,219.6,998.6,218.6z"/>
		<path class="st0" d="M1885.2,272.5c3-0.6,6.3-0.9,9.2,0.6c-1.3,3.7-5.3,2.5-8.3,2.7C1885.8,275,1885.4,273.3,1885.2,272.5z"/>
		<path class="st0" d="M2148.2,272.5c3.1-0.6,6.3-0.9,9.2,0.6c-1.3,3.7-5.3,2.5-8.3,2.7C2148.9,275,2148.4,273.3,2148.2,272.5z"/>
		<path class="st0" d="M2208.7,272.2c2.4-0.4,5-0.1,7.4,0.4c-0.1,0.8-0.4,2.4-0.5,3.2c-2.4,0-4.8,0-7.2,0
			C2208.2,274.5,2207.2,273,2208.7,272.2z"/>
		<path class="st0" d="M1219.4,272.3c2.9,0,6-0.1,8.9,0.7c-1.1,4.1-5.6,3-8.8,2.8C1219.4,274.6,1219.4,273.5,1219.4,272.3z"/>
		<path class="st0" d="M1314.6,272.6c2.9-0.6,5.8-0.4,8.7,0.2c-0.5,1.1-1,2.2-1.4,3.3c-2.5,0-4.9-0.2-7.4-0.4
			C1314.5,274.7,1314.5,273.7,1314.6,272.6z"/>
		<path class="st0" d="M1398.7,272.3c2.2,0,4.6-0.4,6.8,0.3c1.5,0.4,0.9,2,0.2,2.9c-2.7,1-5.7,0.4-8.3-0.2
			C1397.8,274.3,1398.2,273.3,1398.7,272.3z"/>
		<path class="st0" d="M1741.2,273c3-1.1,6.1-1.2,9.2-0.5c0.6,4.6-4.5,2.9-7.3,3.3C1742.7,275.2,1741.7,273.7,1741.2,273z"/>
		<path class="st0" d="M1945.1,272.4c2.9-0.9,6-0.6,8.9,0.2c-0.6,1.2-0.2,3.7-2.1,3.4C1949.3,276.3,1943.4,276.7,1945.1,272.4z"/>
	</g>
	<g id="_x23_040404ff">
		<path class="st0" d="M131,99.5c4.8-5.2,9.9-10.2,15.2-14.9c1.1,0.8,2.2,1.6,3.3,2.4c-3,4.8-7.5,8.4-11.3,12.5
			c-1.7,1.7-3.3,3.5-5.4,4.5C130.5,104,129.4,101.1,131,99.5z"/>
		<path class="st0" d="M561.8,122c5.3-0.1,10.7-0.1,16.1,0c3.1,0,5.9,3.1,5,6.2c-1.6,4.8-4.2,9.3-6.2,13.9c-1.7,3.3-2.7,7-5.6,9.4
			c-2.3,2-5.2,3.1-8.2,3c-5.7-0.1-11.4,0.1-17.1-0.1c-3.1-0.1-5.5-3.3-4.5-6.3c1.4-4.5,4-8.6,5.8-12.9c1.9-3.9,3.3-8.5,7-11.2
			C556.2,122.4,559.1,122.2,561.8,122 M559.7,125.4c-6.3,0.6-7.9,7.6-10.3,12.3c-1.7,4.5-5,8.6-5.2,13.6c6.5,0.5,13.1,0.2,19.7,0.3
			c5-0.2,7.7-5.2,9.3-9.3c2.2-5.6,5.8-10.7,6.9-16.6C573.3,125,566.5,125.6,559.7,125.4z"/>
		<path class="st0" d="M2267.2,127.9c16.6-3.3,34.4,7.7,38.9,24c4.9,15.3-2.7,33.3-17.1,40.4c-14.4,8-34.1,3.2-43.5-10.1
			c-6.1-7.9-7.7-18.5-5.8-28.1C2242.4,140.9,2253.9,130,2267.2,127.9 M2266.3,131.8c-15.7,3.5-27.1,20.6-23.1,36.4
			c3.1,15.7,19.9,27,35.6,23.6c17.6-2.8,29.6-23.1,23.3-39.8C2297.6,137.6,2281.1,128.1,2266.3,131.8z"/>
		<path class="st0" d="M2271.5,205.7c1,0.2,2,0.3,3,0.6c0.7,2.4,0.5,4.9,0.6,7.4c-1.2,0.1-2.4,0.3-3.6,0.4
			C2271.1,211.3,2271.2,208.4,2271.5,205.7z"/>
		<path class="st0" d="M1154.8,217.6c2.4,0,4.9,0.1,7.4,0.3c0,1.1-0.1,2.1-0.1,3.2c-2.2,0.4-4.5,0.4-6.8,0.4
			c-0.4-0.4-1.1-1.1-1.5-1.5C1154.2,219.2,1154.5,218.4,1154.8,217.6z"/>
		<path class="st0" d="M736,219.5c2.4-2.2,5.8-1.5,8.7-1c-0.1,1.1-0.2,2.2-0.2,3.3C741.8,221.6,736.7,223.1,736,219.5z"/>
		<path class="st0" d="M903.1,219.1c2.7-1.1,5.9-2.1,8.6-0.1c0,0.7,0.1,2,0.1,2.7c-2.4,0.2-4.8,0.2-7.2,0.2
			C904.1,220.9,903.6,220,903.1,219.1z"/>
		<path class="st0" d="M928.2,221.7c-0.5-1.4-1.6-3.4,0.7-3.5c2.2-0.5,4.4,0,6.7,0.1c-0.1,1.1-0.1,2.3-0.2,3.4
			C932.9,221.8,930.5,221.9,928.2,221.7z"/>
		<path class="st0" d="M1046.9,218.4c2.7-0.1,5.7-1.2,8,0.8c-0.2,0.9-0.5,1.7-0.7,2.6c-2.5,0.1-4.9,0-7.3,0
			C1046.9,220.6,1046.9,219.5,1046.9,218.4z"/>
		<path class="st0" d="M1082.3,218.1c3-0.8,6.1-0.6,8.9,0.7c-0.4,0.6-1.3,2-1.8,2.6C1086.9,221.7,1081,222.3,1082.3,218.1z"/>
		<path class="st0" d="M1211.6,256.1c1.1-0.2,2.1-0.3,3.2-0.4c0.2,2.6,0.4,5.1,0.4,7.7c-1.2,0.2-2.4,0.4-3.7,0.6
			C1211.4,261.4,1211.1,258.8,1211.6,256.1z"/>
		<path class="st0" d="M1253.7,274.2c1.5-1,3.1-1.8,4.7-2.4c1.6,0.3,3.3,0.6,4.9,1c-0.2,1-0.4,1.9-0.7,2.8
			C1259.6,276.4,1256.2,276.3,1253.7,274.2z"/>
		<path class="st0" d="M1682,273.5c2.4-2.1,5.7-1.4,8.7-1c-0.1,1.1-0.1,2.2-0.2,3.3C1687.8,275.6,1682.6,277.1,1682,273.5z"/>
		<path class="st0" d="M1849,273.1c2.8-1.1,6-2.2,8.7-0.2c0,0.7,0,2,0,2.7C1854.6,275.5,1850.1,277.2,1849,273.1z"/>
		<path class="st0" d="M1873.5,272.8c2.4-1.5,5.4-0.6,8.1-0.5c-0.1,1.1-0.2,2.3-0.2,3.4C1878.6,275.4,1872.7,277.5,1873.5,272.8z"/>
		<path class="st0" d="M1992.9,272.1c3.1-0.3,6.3-0.3,9.3,0.6c-0.8,1.1-1.1,2.7-2.5,3.2c-2.3,0.3-4.6,0-6.8-0.1
			C1992.9,274.6,1992.9,273.3,1992.9,272.1z"/>
		<path class="st0" d="M2112.1,273c2.4-0.8,5-2.1,7.5-0.7c1.5,0.3,0.8,2.2,1.1,3.3c-2.4,0.2-4.9,0.2-7.3,0.2
			C2113.2,275.1,2112.5,273.7,2112.1,273z"/>
		<path class="st0" d="M2137.2,275.7c-0.5-1.4-1.7-3.4,0.7-3.5c2.2-0.4,4.4,0,6.6,0.2c-0.1,1.1-0.1,2.3-0.2,3.4
			C2141.9,275.8,2139.5,275.9,2137.2,275.7z"/>
		<path class="st0" d="M2255.9,272.4c2.5,0,5.9-1.5,7.8,0.9c1.1,1.2-0.9,2.6-2,2.5c-2,0.1-3.9,0-5.8,0
			C2255.9,274.6,2255.9,273.5,2255.9,272.4z"/>
	</g>
	<g id="_x23_080808ff">
		<path class="st0" d="M198.3,85.2c1.9,0.2,4.1,0.2,5.4,1.8c4.8,4.5,9.4,9.3,13.9,14.1c-0.9,1.1-1.8,2.1-2.6,3.2
			c-4.2-2.1-6.9-6.1-10.3-9.2C202.1,92.2,197.8,89.8,198.3,85.2z"/>
		<path class="st0" d="M890.5,220.3c2.5-2.9,8.3-3.7,10.2,0.1C897.7,222.8,893.6,222.2,890.5,220.3z"/>
		<path class="st0" d="M916,218.2c2.6-0.3,5.2-0.2,7.8-0.2c-0.1,1.2-0.2,2.4-0.4,3.6c-2.5,0.3-5,0.1-7.5,0.1
			C915.9,220.5,915.9,219.4,916,218.2z"/>
		<path class="st0" d="M1105.9,218.3c2.5-1.1,5.4-0.8,8-0.3c0.9,1.6,0.6,2.7-1,3.3c-2.2,0.2-4.4,0.1-6.5,0.1
			C1106.2,220.3,1106,219.3,1105.9,218.3z"/>
		<path class="st0" d="M1243.2,272.8c2.9-1,6-0.9,8.8,0.6c-1.4,3.9-5.8,2.5-8.9,2.3C1243.1,274.7,1243.2,273.7,1243.2,272.8z"/>
		<path class="st0" d="M1861.8,272c2.6,0,5.3,0,7.9,0c-0.1,1.2-0.3,2.4-0.4,3.6c-2.5,0.3-4.9,0.1-7.4,0.1
			C1861.9,274.5,1861.8,273.3,1861.8,272z"/>
		<path class="st0" d="M1836.5,274.3c2.4-2.9,8.3-3.7,10.2,0.1C1843.7,276.8,1839.6,276.2,1836.5,274.3z"/>
		<path class="st0" d="M2099.5,274.3c2.5-2.9,8.3-3.8,10.2,0.1C2106.7,276.8,2102.6,276.2,2099.5,274.3z"/>
		<path class="st0" d="M2124.9,272.2c2.6-0.3,5.2-0.2,7.9-0.2c-0.1,1.2-0.3,2.4-0.4,3.6c-2.5,0.3-5,0.1-7.5,0
			C2124.8,274.5,2124.9,273.4,2124.9,272.2z"/>
	</g>
	<g id="_x23_020202ff">
		<path class="st0" d="M171.4,96.9c1.5-0.1,3-0.2,4.5-0.2c0.5,8,0.2,15.9,0.2,23.9c-1.6-0.1-3.2-0.2-4.8-0.4
			C171.3,112.4,171,104.6,171.4,96.9z"/>
		<path class="st0" d="M678.2,122.8c4.8-1.2,9.7-0.8,14.6-0.5c3.6-0.1,8.5-1.3,11,2.1c2,4.7-1.9,9.1-3.5,13.4
			c-2.9,5-3.9,11.6-9,14.9c-4.8,3.3-11,1.6-16.5,2.1c-3.8-0.4-8.5,1.2-11.3-2.1c-1.9-2.2-0.6-5.2,0.4-7.5c2.4-4.9,4.6-9.9,6.9-14.9
			C672.2,127,674.8,124,678.2,122.8 M672.6,133.8c-2.4,5.7-5.5,11-7.4,16.9c5.6,1.8,11.7,0.5,17.6,0.9c3.8,0.5,7.9-1.3,9.7-4.8
			c3-6,5.8-12.2,8.6-18.4c0.3-0.8,0.8-2.6-0.5-2.8c-6.6-0.6-13.3-0.2-19.9-0.2C676.3,125.9,674.1,130.2,672.6,133.8z"/>
		<path class="st0" d="M1181,127.4c21.3-0.1,42.6,0,63.9,0c6.1,0,11.1,5.8,11,11.7c0,26.7,0,53.4,0,80.1c-0.2,3.6-0.1,7.6-2.4,10.6
			c-2.4,3.4-6.8,4.9-10.8,4.8c-20-0.1-40,0-60,0c-4.3,0.1-8.4-2.1-10.5-5.8c-2-3.2-1-7-1.2-10.5c-0.7-12-0.3-24-0.4-36.1
			c0.1-8.3-0.2-16.7,0.3-25c-0.3-6.4-0.6-12.9-0.2-19.3C1171.2,132.6,1175.7,127.8,1181,127.4 M1179.2,131.7c-3.2,1.3-5,4.9-4.7,8.3
			c0.1,27.7,0,55.4,0,83c-0.1,4.4,4.1,7.9,8.3,7.7c20,0.1,40,0,59.9,0c3.1,0.2,6.3-1.1,8-3.8c1.7-2.6,1.2-5.9,1.3-8.8
			c0-26.3,0-52.7,0-79c0.1-4.4-3.8-8.2-8.2-8.1c-18,0-36.1,0-54.1,0C1186.2,131,1182.6,130.9,1179.2,131.7z"/>
		<path class="st0" d="M498.3,162.9c6.8-0.7,13.7-0.3,20.6-0.3c3.5-0.1,5.8,4.1,4.3,7.2c-2.6,6.4-5.6,12.6-8.7,18.8
			c-2,4.5-7,6.9-11.8,6.8c-5.4-0.1-10.7,0.2-16.1-0.1c-3.5,0-6.2-3.9-4.6-7.1c2.1-5.3,4.8-10.3,7-15.5
			C490.8,168.4,493.7,164.2,498.3,162.9 M497.3,166.8c-2.5,1.4-3.9,4.1-5,6.7c-2.3,5.2-5,10.3-7.1,15.6c-0.8,1.1,0.4,3,1.7,2.8
			c6.2,0.1,12.5,0.2,18.8-0.1c5.8-1.1,7.4-7.5,9.7-12.1c1.8-4.5,4.9-8.6,5.4-13.5c-5.2-1.2-10.6-0.2-15.9-0.5
			C502.2,165.9,499.5,165.4,497.3,166.8z"/>
		<path class="st0" d="M539.2,162.9c6.5-0.6,13.1-0.2,19.6-0.3c3.4-0.4,6.4,3.3,5.2,6.5c-1.6,4.5-3.9,8.8-5.9,13.1
			c-1.8,3.9-3.3,8.6-7.2,11c-5.4,3.5-12.1,1.7-18,2.1c-3.7,0-9.5,0.6-10.5-4.2c-0.2-4.7,3.1-8.6,4.7-12.8
			C529.8,172.5,531.9,164.5,539.2,162.9 M534.1,170.7c-3,6.9-7,13.5-9.1,20.7c6.5,1.1,13.2,0.4,19.8,0.5c4.2,0,7.3-3.6,8.7-7.3
			c2.6-6,5.8-11.8,8-18c-5.1-1.9-10.5-0.3-15.7-0.9C541.4,165.1,536,166.2,534.1,170.7z"/>
		<path class="st0" d="M620.2,162.8c5.5-0.6,11-0.1,16.5-0.3c2.2,0.1,4.7-0.3,6.6,1.1c2,1.7,2.2,4.7,1,7c-2.5,5.7-5.3,11.3-7.9,17
			c-2,4.6-6.8,7.7-11.8,7.7c-5.7,0-11.4,0.3-17.1-0.3c-3.4,0-5.6-4.1-4.1-7.1c2.2-5.3,4.9-10.5,7.2-15.8
			C612.4,167.9,615.5,163.7,620.2,162.8 M614,172.6c-2.6,6.3-6.4,12.2-8,18.9c6.2,0.9,12.5,0.3,18.7,0.5c4.2,0.4,7.9-2.8,9.3-6.6
			c2.7-6.2,5.8-12.1,8.3-18.3c-0.4-0.3-1.3-0.8-1.7-1.1c-5.6-0.7-11.2,0.1-16.8-0.3C619.3,165.1,615.5,168.6,614,172.6z"/>
		<path class="st0" d="M398.6,198.9c1.5-3.5,5.1-6.3,9-6.1c5.1,0.3,10.3-0.6,15.3,0.9c0.4,1.2,0.9,2.3,1.3,3.5
			c-2.1,5-4.4,9.9-6.7,14.7c-1.5,3.4-5,5.9-8.7,5.6c-4.8-0.1-9.5,0.4-14.2-0.3c-1.8-0.9-3.1-3.4-2-5.4
			C394.4,207.5,396.6,203.2,398.6,198.9 M400.3,202.6c-1.6,4-3.8,7.8-5.3,11.9c4.6,0.1,9.2,0.1,13.8,0.1c2.4,0.2,4.7-1.5,5.7-3.6
			c2.4-4.9,4.9-9.7,6.7-14.9c-1.5,0-2.9,0-4.4,0c-3.6,0-7.3-0.2-10.9,0.1C402.9,196.9,401.5,200,400.3,202.6z"/>
		<path class="st0" d="M601,203.4c5.2-1,10.5-0.2,15.8-0.5c3,0.1,7-0.6,8.8,2.5c1.8,3.1-0.5,6.6-1.8,9.5c-3,5.5-4.7,11.8-8.5,16.8
			c-3.8,4.6-10.2,3.9-15.5,4c-3.9-0.2-7.7,0.2-11.5-0.3c-3.2-0.5-4.9-4.4-3.4-7.2c2.5-6,5.5-11.9,8.2-17.9
			C594.5,207,597.5,204.4,601,203.4 M595.5,212.6c-2.7,6.4-6.4,12.4-8.3,19.1c4.4,1.6,9.1,0.7,13.7,1c3.3-0.1,7,0.6,10-1.3
			c3.1-1.7,4.3-5.3,5.7-8.3c2.3-5.4,5.5-10.4,6.9-16.1c-5.7-1.9-11.7-0.6-17.6-1C601.4,205.5,597,208.4,595.5,212.6z"/>
		<path class="st0" d="M633.3,210.7c1.9-4.5,6.5-7.8,11.5-7.8c5.7,0,11.5-0.1,17.2,0.1c2.9-0.1,4.3,2.7,5.3,5
			c-2.6,6.7-5.9,13.2-8.9,19.8c-1.9,4.5-6.5,8-11.5,7.8c-6.1,0.1-12.3,0.5-18.4-0.2c-3.2-0.7-4.3-4.5-3-7.2
			C627.7,222.2,630.7,216.6,633.3,210.7 M636.1,212.3c-2.7,6.5-6.8,12.6-8.3,19.5c6.2,1.7,12.7,0.4,19,0.8c4.6,0.2,8-3.8,9.5-7.8
			c2.5-6,6.1-11.6,7.6-17.9c-5.9-1.6-12-0.6-18-0.9C641.6,205.6,637.5,208.3,636.1,212.3z"/>
		<path class="st0" d="M1130,218.1c3.2-0.5,6.7-1.1,9.4,1.1c-0.5,0.5-1.6,1.6-2.2,2.2c-1.9,0-3.9,0.1-5.8,0.3
			C1130.9,220.4,1130.4,219.2,1130,218.1z"/>
		<path class="st0" d="M712.1,220.6c0.4-0.7,1.2-2,1.5-2.6c3,0,6.5-0.4,8.5,2.5C719.1,221.9,715.1,222.7,712.1,220.6z"/>
		<path class="st0" d="M808.3,218.5c2.5-0.9,5.2-0.4,7.8-0.5c-0.1,0.8-0.2,2.5-0.3,3.3c-2.5,0.7-5.2,0.4-7.7,0.3
			C808.1,220.6,808.2,219.6,808.3,218.5z"/>
		<path class="st0" d="M950.5,220.5c1.7-3.8,6.4-2.3,9.6-1.8C959.2,223.3,953.5,222.4,950.5,220.5z"/>
		<path class="st0" d="M962.6,218.9c2.7-0.8,5.5-1,8.2-1c0.2,1.1,0.4,2.3,0.7,3.4c-2.4,0.4-4.9,0.4-7.3,0.5
			C963.7,220.8,963.1,219.9,962.6,218.9z"/>
		<path class="st0" d="M1011,218.6c2.7-0.9,5.8-0.9,8.5,0.2c0.3,3.8-4.1,3.1-6.6,3C1011,222.1,1010.4,219.9,1011,218.6z"/>
		<path class="st0" d="M381.1,236.3c2.6-4.8,3.7-11.5,9.6-13.3c5.4-1,11,0.1,16.4-0.4c1.3,1.2,3.6,2.5,3,4.7c-1.2,4-3.4,7.6-5,11.5
			c-1.3,3.1-3,6.6-6.4,7.9c-4.2,1.2-8.7,0.7-13,0.8c-2.2-0.1-5.1,0.4-6.5-1.7C376.9,242.7,380.1,239.2,381.1,236.3 M386.9,231.2
			c-1.8,4.2-3.9,8.3-5.7,12.5c4.4,0.9,9,0.6,13.4,0.6c2.7,0,5.1-1.6,6.2-4c2.2-4.8,4.8-9.4,6.4-14.5c-4.8-0.2-9.7-0.2-14.5-0.1
			C389.8,226,388,228.8,386.9,231.2z"/>
		<path class="st0" d="M414.7,228c1.1-2.5,3.5-4.4,6.1-5.2c5.5-0.3,11,0,16.6-0.1c1,1,1.9,2,2.9,3.1c-1.5,5.3-4.4,10.1-6.4,15.2
			c-1.4,3.2-4.3,6.1-8,6.3c-5,0.1-10.1,0.5-15-0.3c-2.4-0.6-3.2-3.6-2.1-5.7C410.5,236.8,412.6,232.4,414.7,228 M416.5,231.6
			c-1.9,4.1-3.9,8.1-5.5,12.3c4.5,0.7,9.1,0.4,13.6,0.4c2.7,0,5-1.9,6-4.3c2.1-4.7,4.6-9.2,6.3-14.1c-5.1-0.3-10.1-0.5-15.2-0.1
			C418.9,226.4,417.6,229.3,416.5,231.6z"/>
		<path class="st0" d="M1572.5,239.8c0.1-3.7,1.3-8.3,5.4-9.4c5.4-2.8,13.1,3.7,10.4,9.4c-2.9,1.1-3-2.4-4.1-4.2
			c-0.8-1.6-2.7-2.2-4.4-2.1c-2.5,1.1-3.3,3.9-4.3,6.2C1574.7,239.7,1573.2,239.7,1572.5,239.8z"/>
		<path class="st0" d="M2219.4,272.7c3-0.9,6.3-0.9,9.3,0.1c-0.7,4.1-5.2,2.9-8.2,3C2220.1,274.8,2219.8,273.7,2219.4,272.7z"/>
		<path class="st0" d="M1410.2,273c2.4-1.4,5.3-0.6,8-0.5c0,1.2-0.1,2.4-0.1,3.5c-2.7,0-5.3,0-7.9-0.4
			C1410.2,275,1410.2,273.7,1410.2,273z"/>
		<path class="st0" d="M1657.9,274.2c2.2-3.6,7.9-2.8,10.3,0.3C1665,275.9,1660.6,277,1657.9,274.2z"/>
		<path class="st0" d="M1754.3,272.5c2.5-0.8,5.2-0.4,7.7-0.5c-0.1,0.8-0.2,2.5-0.3,3.3c-2.5,0.8-5.2,0.4-7.7,0.3
			C1754.1,274.6,1754.2,273.5,1754.3,272.5z"/>
		<path class="st0" d="M1896.6,274.6c1.4-4,6.3-2.4,9.5-1.9C1905.2,277.3,1899.6,276.4,1896.6,274.6z"/>
		<path class="st0" d="M1908.3,273.1c3.3-1.5,7.1-1.7,10.4-0.1c-1,3.9-5,3.1-8.1,2.9C1909.7,275.2,1909,274,1908.3,273.1z"/>
		<path class="st0" d="M1956.9,272.5c2.8-0.9,5.8-0.8,8.6-0.2c0,1.1,0,2.3-0.1,3.5c-2.7,0.3-5.4,0.3-8.1,0.2
			C1957.1,274.8,1956.8,273.7,1956.9,272.5z"/>
		<path class="st0" d="M2017.3,272.5c2.5-0.9,5.2-0.4,7.8-0.5c-0.1,0.8-0.2,2.5-0.3,3.4c-2.5,0.7-5.2,0.4-7.7,0.3
			C2017.1,274.6,2017.2,273.6,2017.3,272.5z"/>
		<path class="st0" d="M2159.5,274.5c1.7-3.8,6.4-2.4,9.6-1.8C2168.2,277.3,2162.5,276.4,2159.5,274.5z"/>
		<path class="st0" d="M2171.6,272.9c2.7-0.8,5.4-1,8.2-1c0.2,1.1,0.4,2.3,0.6,3.4c-2.4,0.4-4.9,0.4-7.4,0.4
			C2172.6,274.8,2172.1,273.9,2171.6,272.9z"/>
	</g>
	<g id="_x23_090909ff">
		<path class="st0" d="M975.2,218c2.6,0,5.3,0,8,0.3c0,1.1,0.1,2.3,0.1,3.5c-2.6,0-5.1,0-7.6,0C975.4,220.5,975.3,219.2,975.2,218z"
			/>
		<path class="st0" d="M2184.2,272c2.6,0,5.3,0,8,0.3c0,1.1,0,2.3,0.1,3.5c-2.6,0-5.1,0-7.7,0C2184.4,274.5,2184.3,273.2,2184.2,272
			z"/>
		<path class="st0" d="M1290.9,272.4c2.6-0.1,5.2-0.1,7.8-0.1c0,1.2-0.1,2.4-0.1,3.6c-2.6,0-5.1,0-7.7-0.1
			C1290.9,274.7,1290.8,273.6,1290.9,272.4z"/>
		<path class="st0" d="M1920.9,272.4c3.5-0.5,8-1.5,10.2,2.1c-2.7,2-6.1,1.8-9.2,1.3C1921.4,274.7,1921.1,273.5,1920.9,272.4z"/>
	</g>
	<g id="_x23_060606ff">
		<path class="st0" d="M748.6,218.3c2.6-0.2,5.2-0.6,7.8,0c0,1.1,0,2.3,0,3.4c-2.6,0.1-5.2,0.1-7.8,0.1
			C748.6,220.6,748.6,219.5,748.6,218.3z"/>
		<path class="st0" d="M820.1,221.7c0-1.2,0-2.5,0.1-3.7c2.5,0,5,0,7.5,0c0.1,1.2,0.2,2.5,0.3,3.8
			C825.3,221.8,822.7,221.8,820.1,221.7z"/>
		<path class="st0" d="M832,218.4c2.8-0.5,5.6-0.6,8.3,0.4c-0.3,0.8-0.8,2.3-1.1,3c-2.5,0-5,0-7.4-0.4
			C831.9,220.7,832,219.2,832,218.4z"/>
		<path class="st0" d="M1093.6,218.4c3.1-1,6.6-1.4,9.5,0.5c-0.6,0.8-1.1,1.7-1.7,2.5c-2.2,0-4.3,0-6.5,0
			C1094.4,220.4,1094,219.4,1093.6,218.4z"/>
		<path class="st0" d="M2272.2,241.1c1,0.5,2,1,3.1,1.5c-0.1,2.4-0.2,4.9-0.5,7.3c-1.1-0.1-2.2-0.2-3.3-0.3
			C2271.1,246.7,2271.1,243.8,2272.2,241.1z"/>
		<path class="st0" d="M2271.2,253.9c1.2,0,2.6,0,3.9,0c0,2.5,0,5.1,0,7.6c-1.3,0-2.5,0-3.7,0C2271.3,259,2271.2,256.4,2271.2,253.9
			z"/>
		<path class="st0" d="M1211.6,275.9c-0.3-3-0.6-6.1,0.8-8.8c0.8,0.4,2.2,1.3,3,1.7c-0.1,2.3-0.2,4.7-0.5,7
			C1214,275.8,1212.4,275.9,1211.6,275.9z"/>
		<path class="st0" d="M1694.6,272.3c2.6-0.2,5.2-0.5,7.8,0c0,1.1,0,2.3,0,3.4c-2.6,0.1-5.2,0.1-7.8,0.1
			C1694.5,274.6,1694.5,273.5,1694.6,272.3z"/>
		<path class="st0" d="M1766.1,275.7c0-1.2,0-2.5,0.1-3.7c2.6,0,5.2,0,7.8,0c0,0.9-0.1,2.7-0.2,3.6
			C1771.2,275.9,1768.6,275.8,1766.1,275.7z"/>
		<path class="st0" d="M1778,272.4c2.8-0.5,5.6-0.6,8.3,0.4c-0.3,0.8-0.8,2.3-1.1,3c-2.5,0-5,0-7.4-0.4
			C1777.9,274.7,1778,273.2,1778,272.4z"/>
		<path class="st0" d="M2029.1,275.7c0-1.2,0-2.5,0.1-3.7c2.5,0,5,0,7.5,0c0.1,0.9,0.2,2.8,0.3,3.7
			C2034.3,275.8,2031.7,275.8,2029.1,275.7z"/>
		<path class="st0" d="M2041,272.4c2.8-0.5,5.6-0.6,8.3,0.3c-0.2,0.8-0.8,2.3-1,3c-2.5,0-5,0-7.4-0.4
			C2040.9,274.7,2041,273.2,2041,272.4z"/>
	</g>
	<g id="_x23_111111ff">
		<path class="st0" d="M1070.1,217.9c3.1-0.5,6.3-0.5,9.2,0.7c-0.4,0.7-1.3,2.1-1.7,2.7c-2.3,0-4.5,0.2-6.8,0.1
			C1070.7,220.6,1070.3,218.8,1070.1,217.9z"/>
	</g>
	<g id="_x23_0c0c0cff">
		<path class="st0" d="M1302.2,272.7c2.8-0.3,5.5-0.3,8.3-0.3c0,1.2,0,2.4-0.1,3.6c-2.4,0-4.8,0.2-7.2-0.2
			C1303,275,1302.4,273.4,1302.2,272.7z"/>
	</g>
	<g id="_x23_0b0b0bff">
		<path class="st0" d="M1374.1,272.6c2.7-0.5,5.4-0.2,8.2-0.2c-0.1,1.1-0.2,2.3-0.5,3.4C1379,276.1,1372.9,277.1,1374.1,272.6z"/>
	</g>
</g>
</svg>
